HIERARCHY
ROOT Hips
{
 OFFSET 0.000000 0.000000 0.000000
 CHANNELS 6 Xposition Yposition Zposition Yrotation Xrotation Zrotation
 JOINT Chest
 {
  OFFSET 0.000000 9.581000 -0.001100
  CHANNELS 3 Yrotation Xrotation Zrotation
  JOINT Chest2
  {
   OFFSET 0.000000 9.561100 0.002200
   CHANNELS 3 Yrotation Xrotation Zrotation
   JOINT Chest3
   {
    OFFSET 0.000000 9.521100 0.000000
    CHANNELS 3 Yrotation Xrotation Zrotation
    JOINT Chest4
    {
     OFFSET 0.000000 9.511400 0.000000
     CHANNELS 3 Yrotation Xrotation Zrotation
     JOINT Neck
     {
      OFFSET 0.000000 14.375100 0.000000
      CHANNELS 3 Yrotation Xrotation Zrotation
      JOINT Head
      {
       OFFSET 0.000000 8.901200 0.004600
       CHANNELS 3 Yrotation Xrotation Zrotation
       End Site
       {
        OFFSET 0.000000 16.962200 0.002400
       }
      }
     }
     JOINT RightCollar
     {
      OFFSET -2.920100 9.518800 0.000000
      CHANNELS 3 Yrotation Xrotation Zrotation
      JOINT RightShoulder
      {
       OFFSET -13.664500 0.000000 0.000000
       CHANNELS 3 Yrotation Xrotation Zrotation
       JOINT RightElbow
       {
        OFFSET 0.000000 -29.999200 0.000000
        CHANNELS 3 Yrotation Xrotation Zrotation
        JOINT RightWrist
        {
         OFFSET 0.000000 -24.253600 0.000000
         CHANNELS 3 Yrotation Xrotation Zrotation
         End Site
         {
          OFFSET 0.000000 -17.918900 0.000000
         }
        }
       }
      }
     }
     JOINT LeftCollar
     {
      OFFSET 2.920100 9.518800 0.000000
      CHANNELS 3 Yrotation Xrotation Zrotation
      JOINT LeftShoulder
      {
       OFFSET 13.664500 0.000000 0.000000
       CHANNELS 3 Yrotation Xrotation Zrotation
       JOINT LeftElbow
       {
        OFFSET 0.000000 -29.999200 0.000000
        CHANNELS 3 Yrotation Xrotation Zrotation
        JOINT LeftWrist
        {
         OFFSET 0.000000 -24.253600 0.000000
         CHANNELS 3 Yrotation Xrotation Zrotation
         End Site
         {
          OFFSET 0.000000 -17.918900 0.000000
         }
        }
       }
      }
     }
    }
   }
  }
 }
 JOINT RightHip
 {
  OFFSET -7.797300 0.005300 0.000500
  CHANNELS 3 Yrotation Xrotation Zrotation
  JOINT RightKnee
  {
   OFFSET 0.000000 -40.663400 -0.000500
   CHANNELS 3 Yrotation Xrotation Zrotation
   JOINT RightAnkle
   {
    OFFSET 0.000000 -39.523700 -0.000900
    CHANNELS 3 Yrotation Xrotation Zrotation
    JOINT RightToe
    {
     OFFSET 0.000000 -6.418000 14.485300
     CHANNELS 3 Yrotation Xrotation Zrotation
     End Site
     {
      OFFSET 0.000000 -1.465200 6.326400
     }
    }
   }
  }
 }
 JOINT LeftHip
 {
  OFFSET 7.797300 0.005300 0.000500
  CHANNELS 3 Yrotation Xrotation Zrotation
  JOINT LeftKnee
  {
   OFFSET 0.000000 -40.663400 -0.000500
   CHANNELS 3 Yrotation Xrotation Zrotation
   JOINT LeftAnkle
   {
    OFFSET 0.000000 -39.523700 -0.000900
    CHANNELS 3 Yrotation Xrotation Zrotation
    JOINT LeftToe
    {
     OFFSET 0.000000 -6.418000 14.485300
     CHANNELS 3 Yrotation Xrotation Zrotation
     End Site
     {
      OFFSET 0.000000 -1.465200 6.326400
     }
    }
   }
  }
 }
}
MOTION
Frames: 12
Frame Time: 0.008333
-15.204626 126.893951 20.222466 -171.714849 -45.943598 -3.353218 -2.845290 26.530338 0.588432 -0.489626 4.496470 0.189908 -0.771744 7.137233 0.284080 -2.317970 21.720715 0.580037 5.189794 21.115139 -0.865111 5.808054 -3.067857 -2.121855 2.145129 3.375814 0.385277 5.848841 -12.900543 -14.588824 -109.960911 -63.049724 156.941292 13.920205 18.490478 7.690465 -8.409803 -0.510686 -2.242383 -10.794199 -11.188580 16.256774 58.653154 -52.618881 -112.190766 1.610677 -15.665597 13.523438 -4.875255 -26.302110 -1.269606 -1.898948 77.381518 -0.275155 10.347252 -8.700522 1.707417 -0.000320 0.003945 -0.000142 7.412273 2.455778 3.060489 129.549410 65.491692 150.324411 3.680335 12.433614 5.338135 0.002450 0.000800 0.001086
-15.204985 126.894037 20.224568 -171.712911 -45.955659 -3.354721 -2.839846 26.524715 0.582800 -0.488503 4.495360 0.189390 -0.770061 7.135603 0.283242 -2.313330 21.719036 0.578240 5.177100 21.082443 -0.841009 5.787635 -3.107458 -2.092638 2.128531 3.384350 0.387454 5.791727 -12.835306 -14.476508 -110.065996 -63.081904 157.079645 13.919704 18.473212 7.619012 -8.422533 -0.527758 -2.227285 -10.786799 -11.163822 16.243198 58.680676 -52.638652 -112.202462 1.617596 -15.606240 13.463144 -4.890249 -26.247063 -1.256214 -1.928450 77.353597 -0.294209 10.314204 -8.820572 1.598237 -0.001448 -0.000193 -0.000642 7.418822 2.464533 3.067969 129.550427 65.489551 150.325201 3.677779 12.431601 5.340393 0.000134 0.001350 0.000060
-15.205280 126.893628 20.227259 -171.714350 -45.964350 -3.352878 -2.832221 26.513812 0.577947 -0.487527 4.493624 0.188668 -0.768613 7.133091 0.282125 -2.308091 21.710489 0.572458 5.163993 21.057084 -0.814628 5.767246 -3.144787 -2.065619 2.113400 3.399951 0.392510 5.767815 -12.796393 -14.416203 -110.097212 -63.084196 157.106784 13.919076 18.456105 7.552554 -8.427335 -0.586125 -2.208194 -10.782840 -11.104299 16.213857 58.661381 -52.640768 -112.172785 1.608148 -15.550030 13.402741 -4.895616 -26.209922 -1.251284 -1.962855 77.337032 -0.312419 10.296790 -8.908162 1.510006 -0.001610 -0.004896 -0.000713 7.423862 2.471697 3.070424 129.541309 65.488545 150.315516 3.675405 12.433773 5.344014 -0.001218 0.000484 -0.000539
-15.205132 126.892499 20.230726 -171.715585 -45.967376 -3.352360 -2.822597 26.495899 0.575830 -0.491305 4.503427 0.191555 -0.763465 7.117877 0.276840 -2.305682 21.706766 0.568923 5.157336 21.057338 -0.793994 5.739750 -3.209809 -2.041248 2.099488 3.408894 0.396067 5.748126 -12.754596 -14.358885 -110.124713 -63.087471 157.128577 13.914506 18.440782 7.484980 -8.430622 -0.599948 -2.198610 -10.769261 -11.090787 16.196632 58.634696 -52.644688 -112.147300 1.605824 -15.499344 13.352075 -4.901808 -26.184783 -1.243499 -1.985528 77.325915 -0.325741 10.280700 -8.981502 1.447776 -0.001737 -0.006832 -0.000770 7.428276 2.473799 3.072247 129.537377 65.488050 150.314458 3.674351 12.434867 5.340928 -0.000687 0.000823 -0.000305
-15.204886 126.892986 20.232682 -171.708928 -45.984134 -3.358656 -2.814993 26.489980 0.573673 -0.497483 4.514933 0.196423 -0.755394 7.100319 0.268847 -2.302004 21.702655 0.564702 5.138787 21.014190 -0.771965 5.721435 -3.230524 -2.014963 2.080197 3.418428 0.402415 5.743577 -12.722360 -14.321238 -110.122508 -63.081175 157.107164 13.904080 18.424179 7.416345 -8.435207 -0.610874 -2.187754 -10.746543 -11.100154 16.164400 58.594634 -52.668595 -112.101920 1.628656 -15.435952 13.298691 -4.915293 -26.142760 -1.232556 -2.005378 77.313934 -0.344767 10.265921 -9.058896 1.403674 -0.001074 -0.006062 -0.000476 7.432658 2.493898 3.080599 129.529742 65.492999 150.311998 3.675068 12.433839 5.339310 0.000338 0.002232 0.000150
-15.205333 126.895118 20.233191 -171.691790 -46.014454 -3.369121 -2.814640 26.495725 0.567113 -0.484054 4.486482 0.185527 -0.763234 7.122547 0.277438 -2.295237 21.698514 0.560319 5.118399 20.970194 -0.750875 5.700073 -3.250651 -1.985679 2.057154 3.436380 0.413783 5.738316 -12.696874 -14.285516 -110.134529 -63.085611 157.115559 13.897545 18.415356 7.382583 -8.446903 -0.596114 -2.172527 -10.729751 -11.107144 16.143475 58.610471 -52.700530 -112.091551 1.659983 -15.367484 13.239111 -4.929739 -26.088022 -1.227237 -2.022693 77.310939 -0.367053 10.248393 -9.148851 1.386600 -0.000367 -0.005708 -0.000163 7.423679 2.526984 3.083744 129.528160 65.495078 150.309379 3.675420 12.434989 5.335803 0.001589 0.002038 0.000704
-15.204521 126.894070 20.236719 -171.690474 -46.019152 -3.372716 -2.800875 26.474775 0.568483 -0.485939 4.490750 0.186551 -0.764787 7.127823 0.278482 -2.291130 21.696409 0.558257 5.106956 20.939820 -0.742077 5.670635 -3.302015 -1.961966 2.037508 3.430115 0.407579 5.723268 -12.653299 -14.218801 -110.180113 -63.108008 157.168367 13.859937 18.394871 7.273056 -8.452562 -0.601167 -2.166253 -10.709047 -11.116258 16.121443 58.674788 -52.746963 -112.110097 1.722648 -15.276310 13.170508 -4.932931 -26.064780 -1.218414 -2.034803 77.304794 -0.387007 10.245337 -9.236809 1.399117 0.000353 -0.004745 0.000156 7.423745 2.531272 3.087337 129.532137 65.494526 150.312005 3.674455 12.432045 5.347839 0.003105 0.001561 0.001376
-15.204156 126.894630 20.238734 -171.688292 -46.037889 -3.375487 -2.786376 26.467000 0.567730 -0.495498 4.510053 0.192287 -0.759985 7.118403 0.275801 -2.286576 21.694038 0.556608 5.089422 20.889992 -0.738609 5.643393 -3.336710 -1.936262 2.016656 3.416387 0.396083 5.706745 -12.609861 -14.147729 -110.154864 -63.101273 157.115971 13.876503 18.386821 7.215753 -8.453826 -0.668759 -2.167627 -10.688762 -11.066341 16.092973 58.705659 -52.779176 -112.103687 1.767370 -15.196512 13.099379 -4.909509 -26.024396 -1.221995 -2.070068 77.297308 -0.417178 10.249412 -9.335293 1.436254 0.003080 -0.001798 0.001365 7.424407 2.547690 3.092944 129.525680 65.493763 150.301141 3.673139 12.439014 5.348745 0.002151 0.000166 0.000953
-15.205304 126.896861 20.239278 -171.671786 -46.070739 -3.381066 -2.788537 26.479034 0.557370 -0.489674 4.502615 0.189958 -0.757227 7.113540 0.274003 -2.279670 21.688742 0.552467 5.064702 20.836721 -0.723442 5.639104 -3.300090 -1.912671 1.994326 3.425240 0.402832 5.683197 -12.567388 -14.081084 -110.157623 -63.111828 157.117184 13.878921 18.378477 7.157797 -8.458275 -0.675940 -2.154178 -10.673100 -11.059378 16.065747 58.725789 -52.806092 -112.090676 1.807549 -15.116982 13.025046 -4.898495 -25.976368 -1.232549 -2.157156 77.306647 -0.510498 10.252710 -9.446723 1.489956 0.003200 -0.004008 0.001418 7.415560 2.579138 3.093793 129.516108 65.489894 150.282562 3.681295 12.455653 5.318497 -0.001875 0.005011 -0.000831
-15.205800 126.896571 20.242220 -171.663869 -46.083609 -3.382588 -2.792011 26.484613 0.551313 -0.461920 4.437195 0.173525 -0.756339 7.108921 0.273151 -2.284273 21.715753 0.557755 5.045754 20.807642 -0.707771 5.631446 -3.277007 -1.889907 1.976929 3.441780 0.408253 5.652454 -12.528897 -14.012297 -110.173547 -63.137828 157.157839 13.871493 18.375692 7.120219 -8.452622 -0.683939 -2.143325 -10.657497 -11.043788 16.034969 58.721521 -52.822322 -112.069400 1.844721 -15.056821 12.976170 -4.894512 -25.955401 -1.224399 -2.438543 77.326272 -0.819698 10.278082 -9.570946 1.565162 -0.000876 -0.005898 -0.000388 7.410927 2.592237 3.090737 129.513754 65.487997 150.277405 3.683302 12.453286 5.334533 0.002683 0.005623 0.001189
-15.205178 126.895102 20.246255 -171.664655 -46.087484 -3.383963 -2.773897 26.456811 0.553120 -0.458242 4.426786 0.171209 -0.748465 7.087985 0.268306 -2.280843 21.723987 0.559404 5.028321 20.820842 -0.685680 5.564706 -3.423463 -1.874848 1.956973 3.457830 0.412216 5.619755 -12.485819 -13.944250 -110.162580 -63.149616 157.152104 13.871112 18.369458 7.036306 -8.453557 -0.675905 -2.130512 -10.633705 -11.044434 16.001146 58.713538 -52.836977 -112.047646 1.883498 -14.992586 12.925727 -4.865959 -25.941545 -1.235236 -2.495415 77.334974 -0.860854 10.267748 -9.681619 1.614798 -0.000326 -0.006279 -0.000145 7.410572 2.591184 3.094863 129.509239 65.482785 150.263584 3.686035 12.456204 5.346333 0.001897 0.006407 0.000840
-15.206645 126.895288 20.248855 -171.654278 -46.106287 -3.382623 -2.767701 26.440387 0.541794 -0.457845 4.427417 0.171074 -0.738594 7.064473 0.262619 -2.256208 21.664162 0.540490 4.994787 20.827619 -0.647757 5.525697 -3.453079 -1.845358 1.923030 3.532399 0.443880 5.581755 -12.445326 -13.877918 -110.169553 -63.141631 157.137235 13.885734 18.376380 6.986423 -8.477692 -0.589329 -2.098765 -10.605416 -11.060376 15.967447 58.707104 -52.848556 -112.025670 1.913898 -14.918787 12.845054 -4.815055 -25.912686 -1.273955 -2.669699 77.351736 -1.003241 10.300369 -9.800044 1.665483 -0.001303 -0.005667 -0.000577 7.408924 2.603763 3.090177 129.489368 65.475848 150.230514 3.694961 12.466809 5.365357 -0.003509 0.006954 -0.001555
